<svg width="120" height="39" viewBox="0 0 120 39" fill="none" xmlns="http://www.w3.org/2000/svg">
<g clip-path="url(#clip0_0_99)">
<path d="M113.586 0H6.414C2.87165 0 0 2.87165 0 6.414V32.066C0 35.6084 2.87165 38.48 6.414 38.48H113.586C117.128 38.48 120 35.6084 120 32.066V6.414C120 2.87165 117.128 0 113.586 0Z" fill="white"/>
<path d="M66.684 13.858H64.614V12.358H66.466V11.698H64.614V10.344H66.58L66.66 9.64398H63.764V14.562H66.614L66.684 13.858Z" fill="#090A0A"/>
<path d="M41.114 13.858H39.044V12.358H40.896V11.698H39.044V10.344H41.01L41.09 9.64398H38.192V14.562H41.04L41.114 13.858Z" fill="#090A0A"/>
<path d="M49.092 10.026C48.758 9.77398 48.282 9.64398 47.66 9.64398H46.336V14.562H47.186V12.668C47.3981 12.7107 47.6137 12.7335 47.83 12.736C48.1461 12.7412 48.459 12.6728 48.744 12.536C49.0009 12.4138 49.2164 12.2191 49.364 11.976C49.5175 11.7181 49.5945 11.4219 49.586 11.122C49.5975 10.9131 49.5586 10.7045 49.4726 10.5138C49.3866 10.323 49.2561 10.1557 49.092 10.026ZM48.466 11.84C48.2436 12.0198 47.9613 12.1084 47.676 12.088C47.5124 12.0824 47.3493 12.0657 47.188 12.038V10.29H47.65C47.9347 10.2724 48.218 10.3421 48.462 10.49C48.5582 10.5688 48.6337 10.67 48.6818 10.7847C48.7299 10.8994 48.7492 11.0241 48.738 11.148C48.7452 11.2761 48.7247 11.4043 48.6777 11.5237C48.6308 11.6432 48.5586 11.7511 48.466 11.84Z" fill="#090A0A"/>
<path d="M61.578 12.4C61.7493 12.3322 61.9092 12.2384 62.052 12.122C62.2134 11.9885 62.3455 11.823 62.44 11.636C62.548 11.4231 62.6016 11.1867 62.596 10.948C62.6073 10.765 62.5739 10.5819 62.4986 10.4146C62.4234 10.2474 62.3085 10.101 62.164 9.98802C61.874 9.76402 61.452 9.65002 60.89 9.65002H59.35V14.57H60.2V12.616H60.824L62.106 14.564H63.09L61.578 12.4ZM61.228 11.858C61.0574 11.9408 60.8696 11.9819 60.68 11.978H60.2V10.298H60.816C61.0555 10.2817 61.2941 10.3412 61.498 10.468C61.5767 10.5314 61.639 10.6129 61.6794 10.7055C61.7198 10.7982 61.7372 10.8992 61.73 11C61.7346 11.178 61.6881 11.3536 61.596 11.506C61.5092 11.6544 61.3815 11.7746 61.228 11.852V11.858Z" fill="#090A0A"/>
<path d="M72.908 14.564H73.758V10.354H75.206L75.286 9.64398H71.456L71.382 10.354H72.908V14.564Z" fill="#090A0A"/>
<path d="M42.372 14.564L43.564 12.626L44.734 14.564H45.712L44.072 12.022L45.59 9.64398H44.65L43.558 11.416L42.524 9.64398H41.558L43.088 12.052L41.434 14.564H42.372Z" fill="#090A0A"/>
<path d="M53.312 13.836H51.278V9.64398H50.428V14.564H53.24L53.312 13.836Z" fill="#090A0A"/>
<path d="M70.662 9.64398H69.812V14.564H70.662V9.64398Z" fill="#090A0A"/>
<path d="M84.508 14.562V11.858C84.508 11.5206 84.4954 11.1313 84.47 10.69L86.938 14.564H87.884V9.64398H87.096V12.444C87.096 12.752 87.096 13.086 87.126 13.444L84.692 9.64398H83.718V14.562H84.508Z" fill="#090A0A"/>
<path d="M82.488 10.746C82.3076 10.3834 82.0227 10.0831 81.67 9.884C81.277 9.67116 80.8348 9.56561 80.388 9.578C79.9181 9.56557 79.453 9.67513 79.038 9.896C78.6621 10.1028 78.3569 10.4177 78.162 10.8C77.9496 11.2212 77.8445 11.6884 77.856 12.16C77.8465 12.6099 77.9445 13.0556 78.142 13.46C78.3263 13.824 78.6136 14.1259 78.968 14.328C79.3609 14.5412 79.8032 14.6468 80.25 14.634C80.7159 14.6463 81.1769 14.5375 81.588 14.318C81.9618 14.1108 82.2658 13.7977 82.462 13.418C82.6765 12.9924 82.7829 12.5205 82.772 12.044C82.781 11.595 82.6837 11.1502 82.488 10.746ZM81.704 13.06C81.5937 13.3266 81.4082 13.5552 81.17 13.718C80.9117 13.8841 80.609 13.9678 80.302 13.958C80.0044 13.9739 79.7095 13.8944 79.4603 13.7311C79.211 13.5678 79.0203 13.3292 78.916 13.05C78.7979 12.7454 78.7402 12.4207 78.746 12.094C78.7411 11.776 78.8031 11.4605 78.928 11.168C79.0392 10.8976 79.226 10.6649 79.466 10.498C79.7248 10.3274 80.0302 10.2415 80.34 10.252C80.6534 10.2353 80.9636 10.3209 81.224 10.496C81.4552 10.6605 81.631 10.8914 81.728 11.158C81.8367 11.46 81.8895 11.7791 81.884 12.1C81.8889 12.4288 81.8277 12.7553 81.704 13.06Z" fill="#090A0A"/>
<path d="M58.118 10.742C57.9376 10.3799 57.6526 10.0803 57.3 9.88198C56.9081 9.6678 56.4664 9.56151 56.02 9.57398C55.5506 9.56296 55.0864 9.67318 54.672 9.89398C54.2974 10.1021 53.9937 10.4177 53.8 10.8C53.5901 11.222 53.4858 11.6887 53.496 12.16C53.4882 12.61 53.5869 13.0554 53.784 13.46C53.9665 13.821 54.25 14.1212 54.6 14.324C54.9924 14.5368 55.4339 14.6423 55.88 14.63C56.3449 14.6416 56.805 14.5335 57.216 14.316C57.5913 14.1092 57.8963 13.7952 58.092 13.414C58.3051 12.986 58.4089 12.5119 58.394 12.034C58.4076 11.5874 58.3129 11.1441 58.118 10.742ZM57.34 13.06C57.2301 13.3285 57.042 13.5578 56.8 13.718C56.5408 13.8854 56.2364 13.9692 55.928 13.958C55.6304 13.9739 55.3355 13.8944 55.0863 13.731C54.837 13.5677 54.6463 13.3291 54.542 13.05C54.4248 12.7451 54.3671 12.4206 54.372 12.094C54.3691 11.7762 54.431 11.4611 54.554 11.168C54.6659 10.8974 54.8534 10.6648 55.094 10.498C55.3527 10.3272 55.6582 10.2412 55.968 10.252C56.2813 10.2358 56.5914 10.3214 56.852 10.496C57.083 10.6602 57.2582 10.8912 57.354 11.158C57.4627 11.4599 57.5155 11.7791 57.51 12.1C57.5181 12.4281 57.4603 12.7546 57.34 13.06Z" fill="#090A0A"/>
<path d="M96.892 21.288C96.6511 21.4176 96.4367 21.5913 96.26 21.8C96.0559 22.0433 95.872 22.3028 95.71 22.576C95.7 22.408 95.684 22.176 95.662 21.916C95.64 21.656 95.616 21.414 95.59 21.218H94.084C94.1173 22.0087 94.1346 22.5967 94.136 22.982V28.234H95.736V23.728C95.9821 23.3613 96.2884 23.0387 96.642 22.774C96.9347 22.5788 97.2803 22.4782 97.632 22.486C97.808 22.4855 97.9831 22.5104 98.152 22.56L98.352 21.16C98.1441 21.104 97.9293 21.0777 97.714 21.082C97.4268 21.0783 97.1435 21.1493 96.892 21.288Z" fill="#090A0A"/>
<path d="M43.466 18.814H41.896L38.2 28.236H39.86L40.782 25.716H44.558L45.5 28.236H47.248L43.466 18.814ZM41.266 24.434L42.266 21.722C42.408 21.304 42.538 20.898 42.666 20.498C42.7993 20.9487 42.9367 21.36 43.078 21.732L44.078 24.434H41.266Z" fill="#090A0A"/>
<path d="M85.568 27.084C85.4791 27.0911 85.3896 27.0783 85.3062 27.0465C85.2229 27.0146 85.1476 26.9646 85.086 26.9C84.9661 26.7107 84.912 26.4872 84.932 26.264V18.132L83.332 18.26V26.548C83.332 27.748 83.892 28.362 85.006 28.362C85.2132 28.361 85.4199 28.3429 85.624 28.308C85.8146 28.2801 86.0017 28.2318 86.182 28.164L85.994 27.014C85.8552 27.0538 85.7123 27.0773 85.568 27.084Z" fill="#090A0A"/>
<path d="M81.568 27.084C81.4784 27.0917 81.3882 27.0792 81.3041 27.0474C81.22 27.0155 81.1441 26.9652 81.082 26.9C80.9638 26.7101 80.9111 26.4867 80.932 26.264V18.132L79.332 18.26V26.548C79.332 27.748 79.892 28.362 81.006 28.362C81.2132 28.361 81.4199 28.3429 81.624 28.308C81.8146 28.2801 82.0017 28.2318 82.182 28.164L81.994 27.014C81.8552 27.0535 81.7122 27.077 81.568 27.084Z" fill="#090A0A"/>
<path d="M77.926 26.92V24.132C77.9533 23.5076 77.8312 22.8857 77.57 22.318C77.3565 21.8952 77.0031 21.5595 76.57 21.368C76.0781 21.1692 75.5504 21.0738 75.02 21.088C74.5216 21.0861 74.0245 21.1398 73.538 21.248C73.1483 21.3288 72.7673 21.4467 72.4 21.6L72.654 22.774C72.9836 22.62 73.3281 22.5001 73.682 22.416C74.04 22.3187 74.409 22.2676 74.78 22.264C75.1949 22.2377 75.6038 22.374 75.92 22.644C76.184 22.898 76.32 23.332 76.32 23.954V24.09C75.8972 24.0309 75.4709 24.0009 75.044 24C73.9 24 73.082 24.2 72.59 24.6C72.3506 24.7968 72.1599 25.0464 72.0329 25.3292C71.9059 25.6119 71.8461 25.9202 71.858 26.23C71.8441 26.6383 71.9453 27.0424 72.15 27.396C72.337 27.711 72.6163 27.9609 72.95 28.112C73.2952 28.2762 73.6738 28.3584 74.056 28.352C74.5219 28.3591 74.9825 28.2527 75.398 28.042C75.7667 27.8587 76.0951 27.6038 76.364 27.292C76.3753 27.6052 76.4127 27.917 76.476 28.224H77.982C77.944 27.654 77.926 27.212 77.926 26.92ZM76.326 26.338C76.0963 26.5908 75.8181 26.7948 75.508 26.938C75.202 27.0902 74.8658 27.1722 74.524 27.178C74.2507 27.1927 73.982 27.1034 73.772 26.928C73.6741 26.8261 73.5988 26.7046 73.5512 26.5716C73.5037 26.4385 73.4848 26.2969 73.496 26.156C73.4896 25.9921 73.5207 25.8289 73.5869 25.6788C73.6531 25.5287 73.7526 25.3958 73.878 25.29C74.13 25.074 74.59 24.966 75.252 24.966C75.6116 24.9712 75.9707 24.9945 76.328 25.036L76.326 26.338Z" fill="#090A0A"/>
<path d="M66.94 24.868H69.118V26.772C68.833 26.8751 68.5391 26.9514 68.24 27C67.9305 27.0503 67.6175 27.0757 67.304 27.076C66.7 27.1008 66.1025 26.9426 65.59 26.622C65.1384 26.3243 64.7892 25.8949 64.59 25.392C64.3718 24.8222 64.2646 24.216 64.274 23.606C64.2541 22.9275 64.3946 22.2539 64.684 21.64C64.9341 21.1227 65.3341 20.6928 65.832 20.406C66.3586 20.1176 66.9518 19.9728 67.552 19.986C68.4037 20.0049 69.2402 20.2148 70 20.6L70.412 19.36C69.5001 18.9177 68.4995 18.6886 67.486 18.69C66.6251 18.6774 65.7735 18.8679 65 19.246C64.2623 19.6137 63.6509 20.1931 63.244 20.91C62.7951 21.7339 62.5729 22.6621 62.6 23.6C62.5793 24.4781 62.7715 25.3482 63.16 26.136C63.5144 26.8345 64.0722 27.4091 64.76 27.784C65.5159 28.1828 66.3616 28.3805 67.216 28.358C67.811 28.3584 68.4041 28.2913 68.984 28.158C69.5671 28.0266 70.1344 27.8328 70.676 27.58V23.62H66.94V24.868Z" fill="#090A0A"/>
<path d="M92.844 24.504C92.8512 23.9185 92.7424 23.3373 92.524 22.794C92.3178 22.2926 91.9704 21.8618 91.524 21.554C91.0311 21.2298 90.4496 21.067 89.86 21.088C89.2672 21.0761 88.6829 21.2291 88.172 21.53C87.6753 21.8366 87.2796 22.2824 87.034 22.812C86.7495 23.4393 86.6126 24.1235 86.634 24.812C86.6151 25.4711 86.7472 26.1257 87.02 26.726C87.2669 27.244 87.6716 27.6704 88.176 27.944C88.7584 28.2434 89.4075 28.3893 90.062 28.368C90.9757 28.3822 91.8806 28.188 92.708 27.8L92.356 26.7C92.0323 26.8352 91.6978 26.943 91.356 27.022C91.0252 27.1014 90.6862 27.1424 90.346 27.144C89.016 27.144 88.318 26.408 88.242 24.944H92.842L92.844 24.504ZM88.294 23.904C88.3359 23.4404 88.5211 23.0014 88.824 22.648C88.9538 22.5092 89.1118 22.3997 89.2874 22.327C89.463 22.2542 89.652 22.2198 89.842 22.226C90.0291 22.2187 90.2155 22.2523 90.3882 22.3245C90.5609 22.3967 90.7158 22.5057 90.842 22.644C91.094 22.924 91.242 23.344 91.264 23.904H88.294Z" fill="#090A0A"/>
<path d="M61.362 22.562C61.157 22.1018 60.8201 21.7128 60.394 21.444C60.0017 21.2102 59.5527 21.0885 59.096 21.092C58.2853 21.092 57.57 21.4313 56.95 22.11C56.9279 21.8108 56.8858 21.5135 56.824 21.22H55.32C55.354 21.844 55.372 22.42 55.372 22.936V31.172L56.972 31.036V28.136C57.4263 28.2927 57.9034 28.3732 58.384 28.374C58.9954 28.3874 59.5988 28.2325 60.128 27.926C60.6424 27.6131 61.0513 27.1534 61.302 26.606C61.5984 25.9466 61.7419 25.2287 61.722 24.506C61.7482 23.8393 61.6252 23.1751 61.362 22.562ZM59.6 26.524C59.4343 26.7431 59.2171 26.918 58.9677 27.0332C58.7183 27.1483 58.4443 27.2001 58.17 27.184C57.9582 27.1835 57.747 27.1607 57.54 27.116C57.3468 27.0768 57.1588 27.015 56.98 26.932V23.17C57.2008 22.9363 57.4557 22.7374 57.736 22.58C57.9978 22.4324 58.2934 22.3552 58.594 22.356C58.804 22.3505 59.0123 22.3958 59.201 22.4881C59.3897 22.5803 59.5534 22.7169 59.678 22.886C59.95 23.24 60.078 23.81 60.078 24.592C60.078 25.44 59.916 26.082 59.59 26.522L59.6 26.524Z" fill="#090A0A"/>
<path d="M53.978 22.562C53.7736 22.1014 53.4366 21.7122 53.01 21.444C52.6178 21.2081 52.1676 21.0862 51.71 21.092C50.91 21.092 50.188 21.43 49.562 22.11C49.5413 21.8113 49.5026 21.514 49.446 21.22H47.94C47.974 21.844 47.992 22.42 47.992 22.936V31.172L49.592 31.036V28.136C50.0463 28.2927 50.5234 28.3732 51.004 28.374C51.6154 28.3869 52.2186 28.232 52.748 27.926C53.2618 27.613 53.67 27.1532 53.92 26.606C54.218 25.947 54.3623 25.2289 54.342 24.506C54.367 23.839 54.2426 23.1748 53.978 22.562ZM52.214 26.522C52.0489 26.7412 51.8321 26.9162 51.5829 27.0314C51.3338 27.1466 51.06 27.1983 50.786 27.182C50.5742 27.1813 50.3631 27.1586 50.156 27.114C49.9633 27.0751 49.776 27.0133 49.598 26.93V23.17C49.8181 22.9363 50.0723 22.7374 50.352 22.58C50.6167 22.4323 50.9149 22.3552 51.218 22.356C51.4277 22.3508 51.6355 22.3963 51.8239 22.4885C52.0122 22.5808 52.1756 22.7171 52.3 22.886C52.568 23.24 52.7 23.81 52.7 24.592C52.706 25.44 52.544 26.082 52.214 26.522Z" fill="#090A0A"/>
<path d="M104.2 21.22L102.882 25.2C102.718 25.7053 102.575 26.2126 102.454 26.722C102.354 26.1953 102.22 25.6756 102.054 25.166L100.754 21.212H99.032L101.62 28.286L101.516 28.548C101.16 29.4613 100.627 29.9186 99.916 29.92C99.759 29.9199 99.6024 29.9058 99.448 29.878C99.3099 29.8562 99.1731 29.8275 99.038 29.792L98.746 30.962C98.9357 31.0225 99.1295 31.0693 99.326 31.102C99.5751 31.1437 99.8273 31.1645 100.08 31.164C100.56 31.1784 101.037 31.0754 101.468 30.864C101.873 30.6475 102.217 30.3325 102.468 29.948C102.797 29.4413 103.062 28.8949 103.254 28.322L105.836 21.212L104.2 21.22Z" fill="#090A0A"/>
<path d="M18.124 20.85L18.094 20.92H19.046L19.016 20.85L18.566 19.826L18.124 20.85Z" fill="#090A0A"/>
<path d="M26.298 7.578H13.022C11.6902 7.57853 10.4132 8.10781 9.4715 9.0495C8.5298 9.99119 8.00053 11.2682 8 12.6V25.876C8 27.2085 8.52931 28.4863 9.4715 29.4285C10.4137 30.3707 11.6916 30.9 13.024 30.9H26.3C27.6324 30.9 28.9103 30.3707 29.8525 29.4285C30.7947 28.4863 31.324 27.2085 31.324 25.876V12.6C31.3237 11.9402 31.1935 11.287 30.9408 10.6776C30.6881 10.0681 30.3178 9.51442 29.8511 9.04808C29.3844 8.58175 28.8304 8.2119 28.2208 7.95967C27.6111 7.70743 26.9578 7.57774 26.298 7.578ZM13.066 22.108H12.436V20.868H11.012V22.108H10.382V19.054H11.012V20.286H12.436V19.054H13.066V22.108ZM13.022 9.764C13.0225 9.58859 13.0924 9.42052 13.2165 9.29648C13.3405 9.17245 13.5086 9.10253 13.684 9.102C13.7709 9.10174 13.8571 9.1186 13.9375 9.15163C14.0179 9.18466 14.091 9.2332 14.1527 9.29448C14.2143 9.35577 14.2633 9.4286 14.2968 9.50882C14.3304 9.58904 14.3477 9.67507 14.348 9.762C14.3473 9.92457 14.2868 10.0812 14.178 10.202C14.7816 11.0862 15.5926 11.8091 16.5402 12.3073C17.4878 12.8056 18.543 13.064 19.6136 13.0601C20.6842 13.0561 21.7375 12.7899 22.6814 12.2847C23.6253 11.7795 24.431 11.0507 25.028 10.162C24.9387 10.0478 24.8901 9.907 24.89 9.762C24.8905 9.58659 24.9604 9.41852 25.0845 9.29448C25.2085 9.17045 25.3766 9.10053 25.552 9.1C25.6389 9.09974 25.7251 9.1166 25.8055 9.14963C25.8859 9.18265 25.959 9.2312 26.0207 9.29248C26.0823 9.35377 26.1313 9.4266 26.1648 9.50682C26.1984 9.58704 26.2157 9.67307 26.216 9.76C26.2155 9.93541 26.1456 10.1035 26.0215 10.2275C25.8975 10.3516 25.7294 10.4215 25.554 10.422H25.528C24.248 12.554 22.064 13.622 19.592 13.622C17.12 13.622 14.942 12.568 13.664 10.422C13.4924 10.4173 13.3295 10.346 13.2096 10.2232C13.0897 10.1003 13.0225 9.93563 13.022 9.764ZM16.622 20.778C16.622 21.652 16.132 22.154 15.278 22.154C14.424 22.154 13.946 21.662 13.946 20.804V19.058H14.576V20.782C14.576 21.292 14.828 21.564 15.286 21.564C15.744 21.564 15.992 21.3 15.992 20.804V19.056H16.622V20.778ZM19.568 22.106L19.29 21.47H17.858L17.84 21.514L17.576 22.114H16.932L18.3 19.054H18.85L18.862 19.072L20.218 22.106H19.568ZM23.534 22.106H23L22.294 20.106L21.586 22.106H21.066L19.984 19.054H20.654L21.34 21.152L22.044 19.054H22.558L23.264 21.152L23.952 19.054H24.6L23.534 22.106ZM27.468 22.106H25.112V19.056H27.4V19.612H25.736V20.238H26.882V20.8H25.736V21.556H27.46L27.468 22.106ZM28.838 22.106H28.2V19.054H28.822L28.838 22.106Z" fill="#090A0A"/>
</g>
<defs>
<clipPath id="clip0_0_99">
<rect width="120" height="38.48" fill="white"/>
</clipPath>
</defs>
</svg>
