<svg width="120" height="39" viewBox="0 0 120 39" fill="none" xmlns="http://www.w3.org/2000/svg">
<g clip-path="url(#clip0_0_49)">
<path d="M113.586 0H6.414C2.87165 0 0 2.87165 0 6.414V32.066C0 35.6084 2.87165 38.48 6.414 38.48H113.586C117.128 38.48 120 35.6084 120 32.066V6.414C120 2.87165 117.128 0 113.586 0Z" fill="white"/>
<path d="M25.6 19.134C25.6105 18.2988 25.8322 17.4799 26.2445 16.7536C26.6569 16.0272 27.2463 15.4171 27.958 14.98C27.5053 14.3337 26.9079 13.8021 26.2135 13.4274C25.519 13.0528 24.7467 12.8455 23.958 12.822C22.278 12.644 20.65 13.822 19.794 13.822C18.938 13.822 17.594 12.834 16.184 12.864C15.2667 12.8955 14.3732 13.1641 13.5905 13.6436C12.8079 14.123 12.1627 14.7971 11.718 15.6C9.782 18.95 11.226 23.874 13.078 26.58C14.006 27.906 15.09 29.38 16.508 29.336C17.896 29.278 18.414 28.45 20.088 28.45C21.762 28.45 22.234 29.336 23.688 29.302C25.178 29.278 26.116 27.97 27.01 26.632C27.6765 25.6871 28.1895 24.6429 28.53 23.538C27.6627 23.1733 26.9221 22.5611 26.401 21.7778C25.8798 20.9944 25.6012 20.0748 25.6 19.134Z" fill="#090A0A"/>
<path d="M22.868 11.04C23.6801 10.0655 24.0804 8.81283 23.984 7.54797C22.7472 7.68133 21.6053 8.27366 20.784 9.20797C19.972 10.1334 19.5605 11.3434 19.64 12.572C20.2588 12.5768 20.8706 12.4414 21.4297 12.1761C21.9887 11.9108 22.4804 11.5224 22.868 11.04Z" fill="#090A0A"/>
<path d="M39.6 17.4L35.286 29.346H37.216L38.308 26.118H42.862L43.954 29.346H45.916L41.6 17.4H39.6ZM38.78 24.628L40.56 19.388H40.61L42.39 24.628H38.78Z" fill="#090A0A"/>
<path d="M51.568 20.536C51.0097 20.5184 50.457 20.6522 49.9686 20.9234C49.4802 21.1945 49.0743 21.5928 48.794 22.076H48.762V20.628H47.03V32.228H48.818V27.904H48.86C49.1271 28.3901 49.5259 28.7909 50.0106 29.0605C50.4953 29.3301 51.0462 29.4575 51.6 29.428C53.786 29.428 55.234 27.69 55.234 24.982C55.234 22.274 53.778 20.536 51.568 20.536ZM53.4 24.982C53.4 26.762 52.488 27.912 51.098 27.912C49.708 27.912 48.812 26.738 48.812 24.982C48.812 23.226 49.732 22.06 51.098 22.06C52.464 22.06 53.4 23.22 53.4 24.982Z" fill="#090A0A"/>
<path d="M61.154 20.536C60.5957 20.5184 60.043 20.6522 59.5546 20.9234C59.0662 21.1945 58.6603 21.5928 58.38 22.076H58.348V20.628H56.616V32.228H58.4V27.904H58.442C58.7091 28.3901 59.1079 28.7909 59.5926 29.0605C60.0773 29.3301 60.6282 29.4575 61.182 29.428C63.368 29.428 64.818 27.69 64.818 24.982C64.818 22.274 63.364 20.536 61.154 20.536ZM60.682 27.912C59.316 27.912 58.396 26.738 58.396 24.982C58.396 23.226 59.316 22.06 60.682 22.06C62.048 22.06 62.984 23.22 62.984 24.982C62.984 26.744 62.072 27.912 60.682 27.912Z" fill="#090A0A"/>
<path d="M75.022 22.6L73.706 22.276C72.166 21.896 71.536 21.4 71.536 20.554C71.536 19.494 72.522 18.766 73.962 18.766C75.402 18.766 76.388 19.486 76.496 20.678H78.296C78.242 18.6 76.512 17.2 73.986 17.2C71.46 17.2 69.64 18.6 69.64 20.668C69.64 22.334 70.658 23.36 72.852 23.888L74.4 24.262C75.948 24.642 76.6 25.198 76.6 26.124C76.6 27.192 75.516 27.97 74.01 27.97C72.438 27.97 71.286 27.194 71.154 26.008H69.324C69.44 28.17 71.228 29.536 73.878 29.536C76.708 29.536 78.488 28.136 78.488 25.902C78.49 24.154 77.472 23.17 75.022 22.6Z" fill="#090A0A"/>
<path d="M82.35 18.566H80.55V20.628H79.284V22.044H80.55V27.044C80.55 28.732 81.238 29.394 83 29.394C83.3353 29.4011 83.6704 29.3737 84 29.312V27.912C83.8048 27.9359 83.6086 27.9499 83.412 27.954C82.684 27.954 82.352 27.606 82.352 26.86V22.06H84V20.644H82.344L82.35 18.566Z" fill="#090A0A"/>
<path d="M89.096 20.52C86.578 20.52 84.964 22.242 84.964 24.982C84.964 27.722 86.564 29.444 89.096 29.444C91.628 29.444 93.226 27.73 93.226 24.982C93.226 22.234 91.62 20.52 89.096 20.52ZM91.4 24.982C91.4 26.87 90.538 27.97 89.09 27.97C87.642 27.97 86.78 26.87 86.78 24.982C86.78 23.094 87.646 22 89.096 22C90.546 22 91.4 23.102 91.4 24.982Z" fill="#090A0A"/>
<path d="M96.448 22.11H96.4V20.628H94.7V29.336H96.488V24.17C96.4777 24.0784 96.4744 23.9861 96.478 23.894C96.4875 23.6576 96.5436 23.4253 96.643 23.2106C96.7423 22.9958 96.8831 22.8027 97.0571 22.6424C97.2312 22.4821 97.4351 22.3577 97.6573 22.2763C97.8795 22.1949 98.1156 22.1581 98.352 22.168C98.6228 22.16 98.8931 22.1965 99.152 22.276V20.6C98.951 20.556 98.7458 20.5339 98.54 20.534C98.0634 20.5168 97.5954 20.664 97.2145 20.9509C96.8335 21.2379 96.5629 21.6471 96.448 22.11Z" fill="#090A0A"/>
<path d="M101.346 25.428H107.496V24.816C107.496 22.176 105.982 20.52 103.572 20.52C101.122 20.52 99.54 22.292 99.54 25.024C99.54 27.756 101.114 29.444 103.648 29.444C105.618 29.444 107.156 28.36 107.398 26.778H105.7C105.541 27.171 105.259 27.502 104.896 27.7222C104.534 27.9423 104.11 28.0397 103.688 28C103.367 28.0111 103.046 27.9539 102.749 27.8321C102.451 27.7102 102.183 27.5266 101.961 27.2933C101.74 27.06 101.571 26.7824 101.465 26.4787C101.358 26.1751 101.318 25.8524 101.346 25.532V25.428ZM101.346 24.16C101.346 23.8696 101.403 23.582 101.515 23.3139C101.627 23.0458 101.791 22.8025 101.997 22.598C102.203 22.3935 102.448 22.2318 102.717 22.1223C102.986 22.0128 103.274 21.9576 103.564 21.96C103.618 21.96 103.672 21.96 103.726 21.96C104.279 21.991 104.797 22.2399 105.167 22.6523C105.537 23.0646 105.729 23.6068 105.7 24.16H101.354H101.346Z" fill="#090A0A"/>
<path d="M41.262 11.252C41.2827 11.0855 41.2874 10.9174 41.276 10.75C41.2274 10.0783 40.9139 9.45332 40.4046 9.01264C39.8953 8.57195 39.2318 8.35159 38.56 8.40001H36.488V14.14H38.56C40.27 14.14 41.262 13.086 41.262 11.252ZM37.378 13.328V9.21001H38.462C38.5775 9.20373 38.6934 9.20842 38.808 9.22401C39.0438 9.25521 39.2711 9.33283 39.4767 9.45239C39.6824 9.57196 39.8623 9.73109 40.006 9.9206C40.1498 10.1101 40.2545 10.3262 40.3143 10.5565C40.374 10.7867 40.3875 11.0265 40.354 11.262C40.3723 11.3851 40.3777 11.5098 40.37 11.634C40.3565 11.8707 40.2964 12.1024 40.193 12.3158C40.0897 12.5292 39.9453 12.7201 39.768 12.8775C39.5907 13.0349 39.3841 13.1557 39.1599 13.233C38.9358 13.3103 38.6986 13.3426 38.462 13.328H37.378Z" fill="#090A0A"/>
<path d="M46.354 11.58C46.301 11.0382 46.0348 10.5396 45.6142 10.194C45.4059 10.0228 45.166 9.89438 44.908 9.81598C44.6501 9.73757 44.3793 9.71074 44.111 9.737C43.5692 9.79004 43.0706 10.0562 42.725 10.4768C42.3793 10.8974 42.215 11.4382 42.268 11.98C42.2559 12.1131 42.2559 12.2469 42.268 12.38C42.321 12.9218 42.5872 13.4204 43.0078 13.766C43.4284 14.1117 43.9692 14.276 44.511 14.223C45.0528 14.17 45.5514 13.9038 45.897 13.4832C46.2427 13.0626 46.407 12.5218 46.354 11.98C46.3665 11.847 46.3665 11.713 46.354 11.58ZM44.312 13.462C43.57 13.462 43.152 12.918 43.152 11.972C43.152 11.026 43.57 10.484 44.312 10.484C45.054 10.484 45.474 11.032 45.474 11.972C45.474 12.914 45.054 13.462 44.312 13.462Z" fill="#090A0A"/>
<path d="M49.044 14.138L49.936 10.948H50.002L50.898 14.138H51.786L52.974 9.80798H52.12L51.348 13.112H51.28L50.39 9.80798H49.568L48.678 13.112H48.614L47.838 9.80798H46.972L48.166 14.138H49.044Z" fill="#090A0A"/>
<path d="M56.8 14.14H57.656V11.34C57.667 11.237 57.667 11.133 57.656 11.03C57.6434 10.8451 57.5941 10.6645 57.5112 10.4987C57.4282 10.333 57.3131 10.1854 57.1727 10.0644C57.0322 9.9435 56.8691 9.85166 56.6929 9.79425C56.5166 9.73684 56.3307 9.715 56.146 9.72999C55.877 9.70757 55.6077 9.76997 55.376 9.90844C55.1443 10.0469 54.9617 10.2545 54.854 10.502H54.8V9.79999H53.976V14.14H54.832V11.6C54.827 11.5501 54.827 11.4999 54.832 11.45C54.846 11.1875 54.9627 10.9411 55.157 10.7641C55.3512 10.5871 55.6074 10.4936 55.87 10.504C56.502 10.504 56.804 10.85 56.804 11.546L56.8 14.14Z" fill="#090A0A"/>
<path d="M59.874 8.11603H59.02V14.138H59.874V8.11603Z" fill="#090A0A"/>
<path d="M65.15 11.58C65.0893 11.0441 64.8203 10.5536 64.401 10.2143C63.9817 9.87509 63.4458 9.71439 62.909 9.76691C62.3723 9.81943 61.8777 10.081 61.5321 10.495C61.1865 10.9091 61.0177 11.4425 61.062 11.98C61.0497 12.113 61.0497 12.2469 61.062 12.38C61.0844 12.6514 61.1605 12.9157 61.286 13.1575C61.4115 13.3992 61.5838 13.6136 61.7929 13.7881C62.002 13.9626 62.2438 14.0938 62.5041 14.174C62.7643 14.2543 63.038 14.2819 63.3091 14.2554C63.5801 14.2289 63.8432 14.1487 64.083 14.0195C64.3228 13.8904 64.5346 13.7148 64.7059 13.5031C64.8772 13.2913 65.0047 13.0476 65.0809 12.7861C65.1572 12.5247 65.1806 12.2506 65.15 11.98C65.1625 11.847 65.1625 11.713 65.15 11.58ZM63.108 13.462C62.364 13.462 61.946 12.918 61.946 11.972C61.946 11.026 62.364 10.484 63.108 10.484C63.852 10.484 64.27 11.032 64.27 11.972C64.27 12.912 63.848 13.462 63.108 13.462Z" fill="#090A0A"/>
<path d="M69.684 14.14V11.18C69.684 10.264 69.072 9.724 67.986 9.724C67.004 9.724 66.304 10.2 66.216 10.946H67.044C67.138 10.638 67.47 10.464 67.946 10.464C68.532 10.464 68.834 10.722 68.834 11.18V11.554L67.66 11.62C66.63 11.684 66.05 12.134 66.05 12.914C66.05 12.958 66.05 13.002 66.05 13.044C66.0675 13.2149 66.1185 13.3808 66.2002 13.532C66.2819 13.6831 66.3926 13.8167 66.526 13.925C66.6594 14.0334 66.8129 14.1143 66.9776 14.1632C67.1423 14.2121 67.3151 14.228 67.486 14.21C67.7438 14.2218 68 14.1651 68.2287 14.0457C68.4575 13.9262 68.6504 13.7483 68.788 13.53H68.856V14.13L69.684 14.14ZM68.834 12.54C68.834 12.552 68.834 12.562 68.834 12.574C68.8205 12.7073 68.7809 12.8366 68.7174 12.9546C68.6539 13.0726 68.5678 13.1769 68.4639 13.2616C68.3601 13.3463 68.2406 13.4097 68.1123 13.4482C67.984 13.4867 67.8493 13.4996 67.716 13.486C67.25 13.486 66.916 13.26 66.916 12.87C66.916 12.48 67.188 12.286 67.784 12.246L68.842 12.178L68.834 12.54Z" fill="#090A0A"/>
<path d="M72.6 14.21C72.8741 14.2204 73.1459 14.1555 73.3857 14.0222C73.6255 13.8889 73.8241 13.6924 73.96 13.454H74.028V14.14H74.848V8.11603H74V10.496H73.936C73.8097 10.2563 73.6177 10.0574 73.3825 9.92283C73.1473 9.78823 72.8787 9.72343 72.608 9.73603C71.514 9.73603 70.808 10.602 70.808 11.972C70.808 13.342 71.504 14.21 72.6 14.21ZM72.842 10.504C73.558 10.504 74.008 11.072 74.008 11.976C74.008 12.88 73.564 13.442 72.842 13.442C72.12 13.442 71.686 12.89 71.686 11.972C71.692 11.06 72.13 10.504 72.848 10.504H72.842Z" fill="#090A0A"/>
<path d="M80.632 14.214C81.1737 14.1609 81.6722 13.8949 82.0179 13.4746C82.3637 13.0542 82.5284 12.5138 82.476 11.972C82.4885 11.839 82.4885 11.7051 82.476 11.572C82.423 11.0302 82.1569 10.5316 81.7362 10.186C81.3156 9.84034 80.7749 9.67597 80.233 9.72901C79.6912 9.78205 79.1926 10.0482 78.847 10.4688C78.5013 10.8895 78.337 11.4302 78.39 11.972C78.3779 12.1051 78.3779 12.239 78.39 12.372C78.4436 12.9133 78.7098 13.4113 79.1301 13.7566C79.5504 14.102 80.0906 14.2664 80.632 14.214ZM79.274 11.972C79.274 11.032 79.692 10.484 80.434 10.484C81.176 10.484 81.6 11.032 81.6 11.972C81.6 12.912 81.178 13.462 80.438 13.462C79.698 13.462 79.274 12.918 79.274 11.972Z" fill="#090A0A"/>
<path d="M85.512 10.508C86.144 10.508 86.446 10.854 86.446 11.55V14.15H87.302V11.35C87.317 11.2474 87.321 11.1435 87.314 11.04C87.2854 10.6673 87.1101 10.3212 86.8267 10.0775C86.5433 9.8338 86.1748 9.71244 85.802 9.74001C85.533 9.71789 85.2639 9.78042 85.0322 9.91885C84.8005 10.0573 84.618 10.2647 84.51 10.512H84.446V9.80001H83.624V14.14H84.478V11.6C84.474 11.5501 84.474 11.4999 84.478 11.45C84.493 11.189 84.6096 10.9442 84.8029 10.7681C84.9962 10.5921 85.2507 10.4987 85.512 10.508Z" fill="#090A0A"/>
<path d="M91.276 13C91.276 13.834 91.656 14.17 92.606 14.17C92.7616 14.1675 92.9167 14.1528 93.07 14.126V13.4C92.9618 13.4121 92.8529 13.4181 92.744 13.418C92.32 13.418 92.132 13.218 92.132 12.766V10.548H93.07V9.82803H92.132V8.72803H91.276V9.82803H90.588V10.548H91.276V13Z" fill="#090A0A"/>
<path d="M95.094 11.61C95.0785 11.4626 95.096 11.3136 95.1451 11.1738C95.1943 11.034 95.2739 10.9069 95.3782 10.8016C95.4825 10.6963 95.6089 10.6155 95.7483 10.5651C95.8876 10.5147 96.0365 10.4959 96.184 10.51C96.784 10.51 97.11 10.862 97.11 11.554V14.14H97.966V11.34C97.9784 11.2513 97.9817 11.1615 97.976 11.072C97.966 10.8849 97.9192 10.7016 97.8383 10.5327C97.7574 10.3637 97.6439 10.2123 97.5044 10.0873C97.3648 9.96225 97.202 9.86598 97.0252 9.80398C96.8484 9.74199 96.6611 9.7155 96.474 9.72603C96.2008 9.7033 95.9272 9.76569 95.6909 9.90463C95.4546 10.0436 95.267 10.2522 95.154 10.502H95.086V8.11603H94.238V14.14H95.094V11.61Z" fill="#090A0A"/>
<path d="M101.074 14.222C101.484 14.2668 101.897 14.1659 102.24 13.937C102.583 13.7081 102.834 13.3658 102.95 12.97H102.128C102.028 13.1496 101.876 13.2953 101.693 13.3886C101.509 13.4819 101.302 13.5186 101.098 13.494C101.061 13.497 101.025 13.497 100.988 13.494C100.838 13.4817 100.692 13.4399 100.559 13.371C100.425 13.3021 100.306 13.2076 100.209 13.0928C100.112 12.9779 100.039 12.8451 99.9935 12.7018C99.9479 12.5586 99.9311 12.4078 99.944 12.258V12.2H103V11.908C103 10.548 102.274 9.724 101.068 9.724C100.974 9.72202 100.879 9.72804 100.786 9.742C100.262 9.81312 99.7866 10.0892 99.4653 10.5099C99.1441 10.9305 99.0026 11.4613 99.072 11.986C99.056 12.0925 99.05 12.2003 99.054 12.308C99.0607 12.5664 99.1183 12.8209 99.2235 13.057C99.3287 13.2931 99.4795 13.5061 99.6671 13.6839C99.8547 13.8616 100.076 14.0007 100.317 14.093C100.558 14.1854 100.816 14.2292 101.074 14.222ZM101.074 10.452C101.107 10.45 101.141 10.45 101.174 10.452C101.451 10.4725 101.708 10.6019 101.889 10.812C102.07 11.022 102.16 11.2954 102.14 11.572H99.944V11.544C99.9482 11.2505 100.069 10.9706 100.279 10.7659C100.489 10.5612 100.772 10.4483 101.066 10.452H101.074Z" fill="#090A0A"/>
</g>
<defs>
<clipPath id="clip0_0_49">
<rect width="120" height="38.48" fill="white"/>
</clipPath>
</defs>
</svg>
