<svg width="120" height="39" viewBox="0 0 120 39" fill="none" xmlns="http://www.w3.org/2000/svg">
<g clip-path="url(#clip0_0_76)">
<path d="M113.586 0H6.414C2.87165 0 0 2.87165 0 6.414V32.066C0 35.6084 2.87165 38.48 6.414 38.48H113.586C117.128 38.48 120 35.6084 120 32.066V6.414C120 2.87165 117.128 0 113.586 0Z" fill="white"/>
<path d="M52.578 20.348C51.8271 20.3512 51.094 20.5767 50.4712 20.9962C49.8484 21.4156 49.3639 22.0102 49.0787 22.7049C48.7935 23.3995 48.7206 24.163 48.869 24.8991C49.0174 25.6352 49.3806 26.3108 49.9127 26.8406C50.4447 27.3704 51.1218 27.7308 51.8585 27.8761C52.5952 28.0214 53.3584 27.9453 54.0519 27.6572C54.7453 27.3691 55.3378 26.8821 55.7547 26.2575C56.1715 25.6329 56.394 24.8989 56.394 24.148C56.4008 23.6457 56.3066 23.1473 56.117 22.6821C55.9274 22.217 55.6464 21.7946 55.2904 21.4402C54.9345 21.0858 54.511 20.8065 54.0451 20.6188C53.5791 20.4312 53.0802 20.3391 52.578 20.348ZM52.578 26.456C51.424 26.456 50.43 25.506 50.43 24.152C50.43 22.798 51.43 21.846 52.578 21.846C53.726 21.846 54.724 22.782 54.724 24.152C54.724 25.522 53.73 26.456 52.578 26.456Z" fill="#090A0A"/>
<path d="M110.628 20.572L108.716 25.418H108.658L106.674 20.572H104.876L107.852 27.346L106.156 31.114H107.896L112.484 20.572H110.628Z" fill="#090A0A"/>
<path d="M101.368 20.328C100.168 20.328 98.908 20.86 98.39 22.04L99.872 22.658C100.188 22.04 100.778 21.838 101.396 21.838C102.258 21.838 103.136 22.356 103.15 23.276V23.4C102.614 23.1161 102.016 22.9684 101.41 22.97C99.81 22.97 98.188 23.846 98.188 25.486C98.188 26.982 99.498 27.946 100.964 27.946C102.086 27.946 102.704 27.442 103.092 26.852H103.15V27.716H104.762V23.42C104.762 21.436 103.28 20.328 101.368 20.328ZM101.168 26.454C100.622 26.454 99.858 26.18 99.858 25.504C99.858 24.642 100.808 24.304 101.628 24.304C102.16 24.2896 102.687 24.4188 103.152 24.678C103.092 25.1644 102.858 25.6127 102.493 25.9393C102.128 26.266 101.656 26.4489 101.166 26.454H101.168Z" fill="#090A0A"/>
<path d="M42.67 21.516V23.128H46.532C46.416 24.036 46.114 24.698 45.652 25.16C45.09 25.722 44.212 26.342 42.67 26.342C41.5475 26.3178 40.4791 25.8548 39.6938 25.0524C38.9085 24.2499 38.4687 23.1718 38.4687 22.049C38.4687 20.9262 38.9085 19.8481 39.6938 19.0456C40.4791 18.2432 41.5475 17.7802 42.67 17.756C43.7539 17.7416 44.7997 18.1556 45.58 18.908L46.718 17.77C46.1857 17.2427 45.5535 16.827 44.8583 16.5475C44.1632 16.2679 43.4192 16.13 42.67 16.142C39.414 16.142 36.67 18.792 36.67 22.048C36.67 25.304 39.406 27.954 42.67 27.954C44.428 27.954 45.754 27.378 46.79 26.298C47.856 25.232 48.19 23.734 48.19 22.524C48.1934 22.1887 48.1646 21.8538 48.104 21.524L42.67 21.516Z" fill="#090A0A"/>
<path d="M91.012 16.546H87.012V27.724H88.68V23.488H91.01C92.86 23.488 94.678 22.15 94.678 20.018C94.678 17.886 92.862 16.546 91.012 16.546ZM91.056 21.934H88.682V18.102H91.056C91.5641 18.102 92.0515 18.3039 92.4108 18.6632C92.7701 19.0225 92.972 19.5099 92.972 20.018C92.972 20.5262 92.7701 21.0135 92.4108 21.3728C92.0515 21.7322 91.5641 21.934 91.056 21.934Z" fill="#090A0A"/>
<path d="M97.268 16.546H95.6V27.724H97.268V16.546Z" fill="#090A0A"/>
<path d="M60.906 20.348C60.1551 20.3512 59.422 20.5767 58.7992 20.9962C58.1764 21.4156 57.6919 22.0102 57.4067 22.7049C57.1215 23.3995 57.0486 24.163 57.197 24.8991C57.3454 25.6352 57.7086 26.3108 58.2407 26.8406C58.7727 27.3704 59.4498 27.7308 60.1865 27.8761C60.9232 28.0214 61.6865 27.9453 62.3799 27.6572C63.0733 27.3691 63.6658 26.8821 64.0827 26.2575C64.4995 25.6329 64.722 24.8989 64.722 24.148C64.7288 23.6457 64.6346 23.1473 64.445 22.6821C64.2554 22.217 63.9743 21.7946 63.6184 21.4402C63.2625 21.0858 62.839 20.8065 62.3731 20.6188C61.9071 20.4312 61.4082 20.3391 60.906 20.348ZM60.906 26.456C59.752 26.456 58.758 25.506 58.758 24.152C58.758 22.798 59.758 21.846 60.906 21.846C62.054 21.846 63.052 22.782 63.052 24.152C63.052 25.522 62.058 26.456 60.906 26.456Z" fill="#090A0A"/>
<path d="M83.184 22.768C82.868 21.918 81.902 20.348 79.93 20.348C77.958 20.348 76.342 21.89 76.342 24.148C76.3315 24.6477 76.4217 25.1444 76.6073 25.6085C76.7929 26.0726 77.0701 26.4946 77.4223 26.8492C77.7745 27.2038 78.1946 27.4839 78.6574 27.6727C79.1202 27.8615 79.6162 27.9551 80.116 27.948C80.7425 27.9515 81.36 27.7995 81.9133 27.5056C82.4665 27.2117 82.9382 26.7851 83.286 26.264L82 25.4C81.566 26.034 80.976 26.452 80.126 26.452C79.7386 26.467 79.3556 26.3651 79.0268 26.1597C78.698 25.9543 78.4385 25.6548 78.282 25.3L83.358 23.2L83.184 22.768ZM78 24.036C77.9822 23.7593 78.0197 23.4817 78.1104 23.2196C78.2012 22.9575 78.3432 22.7162 78.5283 22.5096C78.7134 22.3031 78.9379 22.1356 79.1885 22.0168C79.4391 21.8981 79.7109 21.8305 79.988 21.818C80.652 21.818 81.214 22.15 81.4 22.618L78 24.036Z" fill="#090A0A"/>
<path d="M75.536 16.546H73.864V27.724H75.536V16.546Z" fill="#090A0A"/>
<path d="M71.128 21.2H71.07C70.816 20.9246 70.5063 20.7064 70.1615 20.5599C69.8166 20.4133 69.4446 20.3418 69.07 20.35C67.168 20.35 65.424 22.022 65.424 24.168C65.424 26.314 67.168 27.956 69.07 27.956C69.446 27.9652 69.8196 27.8928 70.1649 27.7436C70.5102 27.5944 70.819 27.3721 71.07 27.092H71.128V27.64C71.128 29.094 70.35 29.872 69.096 29.872C68.074 29.872 67.44 29.138 67.18 28.518L65.724 29.118C65.9987 29.7855 66.4663 30.3558 67.0671 30.7559C67.6678 31.156 68.3742 31.3678 69.096 31.364C71.056 31.364 72.712 30.212 72.712 27.404V20.578H71.128V21.2ZM69.212 26.458C68.058 26.458 67.094 25.494 67.094 24.168C67.094 22.842 68.058 21.848 69.212 21.848C70.366 21.848 71.242 22.828 71.242 24.168C71.242 25.508 70.35 26.456 69.212 26.456V26.458Z" fill="#090A0A"/>
<path d="M39.706 12.508C41.21 12.508 42.2 11.638 42.2 9.80002H39.89V10.4H41.386C41.34 11.272 40.654 11.822 39.706 11.822C39.4453 11.8195 39.1876 11.765 38.9481 11.6619C38.7086 11.5588 38.492 11.4091 38.3109 11.2215C38.1298 11.0339 37.9878 10.8121 37.8932 10.5691C37.7986 10.3261 37.7534 10.0667 37.76 9.80602C37.7555 9.54638 37.8023 9.28841 37.8978 9.04691C37.9933 8.80542 38.1355 8.58515 38.3163 8.39877C38.4971 8.21238 38.713 8.06354 38.9514 7.96079C39.1899 7.85804 39.4464 7.80341 39.706 7.80002C40.1741 7.80252 40.625 7.97608 40.974 8.28802L41.486 7.80002C41.0026 7.35045 40.3662 7.10162 39.706 7.10402C38.9899 7.10402 38.3032 7.38848 37.7968 7.89483C37.2905 8.40118 37.006 9.08794 37.006 9.80402C37.006 10.5201 37.2905 11.2069 37.7968 11.7132C38.3032 12.2196 38.9899 12.504 39.706 12.504V12.508Z" fill="#090A0A"/>
<path d="M46.358 11.768H43.876V10.18H45.976V9.516H43.876V7.836H46.282V7.172H43.166V12.432H46.358V11.768Z" fill="#090A0A"/>
<path d="M49.29 12.432V7.844H50.886V7.172H46.976V7.844H48.572V12.432H49.29Z" fill="#090A0A"/>
<path d="M54.292 7.172H53.582V12.432H54.292V7.172Z" fill="#090A0A"/>
<path d="M57.536 12.432V7.844H59.132V7.172H55.224V7.844H56.82V12.432H57.536Z" fill="#090A0A"/>
<path d="M64.142 12.508C64.678 12.5163 65.2043 12.365 65.6539 12.0731C66.1036 11.7813 66.4562 11.3622 66.6668 10.8693C66.8774 10.3764 66.9366 9.83192 66.8367 9.30527C66.7368 8.77862 66.4825 8.29361 66.106 7.91204C65.7295 7.53046 65.248 7.26958 64.7227 7.16263C64.1974 7.05567 63.6522 7.10749 63.1565 7.31148C62.6608 7.51547 62.237 7.86239 61.9392 8.30806C61.6413 8.75373 61.4829 9.27797 61.484 9.81401C61.4803 10.1658 61.5463 10.5148 61.6781 10.841C61.8099 11.1672 62.005 11.464 62.2521 11.7144C62.4992 11.9649 62.7934 12.1639 63.1177 12.3001C63.4421 12.4363 63.7902 12.507 64.142 12.508ZM64.142 7.79801C64.6756 7.79801 65.1874 8.00999 65.5647 8.38731C65.942 8.76464 66.154 9.2764 66.154 9.81001C66.154 10.3436 65.942 10.8554 65.5647 11.2327C65.1874 11.61 64.6756 11.822 64.142 11.822C63.8823 11.8205 63.6255 11.7673 63.3866 11.6656C63.1476 11.5639 62.9313 11.4156 62.7502 11.2295C62.5691 11.0434 62.4269 10.8231 62.3317 10.5814C62.2366 10.3398 62.1904 10.0816 62.196 9.82201C62.1883 9.56077 62.2328 9.3006 62.3269 9.05677C62.421 8.81294 62.5628 8.59034 62.744 8.40203C62.9253 8.21371 63.1423 8.06347 63.3823 7.96009C63.6224 7.85672 63.8806 7.80229 64.142 7.80001V7.79801Z" fill="#090A0A"/>
<path d="M68.618 8.47L71.014 12.432H71.694V7.172H70.984V11.104L68.61 7.172H67.908V12.432H68.618V8.47Z" fill="#090A0A"/>
<path d="M20.912 18.31L24.378 14.844L11.616 7.59998C11.028 7.26798 10.494 7.22198 10.09 7.41398L20.912 18.31Z" fill="#090A0A"/>
<path d="M9.61401 7.836C9.42546 8.15875 9.33251 8.52845 9.34601 8.902V28.662C9.33402 29.009 9.41114 29.3533 9.57001 29.662L20.458 18.772L9.61401 7.836Z" fill="#090A0A"/>
<path d="M29.038 17.492L24.956 15.172L21.356 18.772L24.956 22.396L29.036 20.078C30.288 19.362 30.288 18.2 29.038 17.492Z" fill="#090A0A"/>
<path d="M20.91 19.22L10.012 30.116C10.424 30.354 10.99 30.316 11.612 29.972L24.378 22.718L20.91 19.22Z" fill="#090A0A"/>
</g>
<defs>
<clipPath id="clip0_0_76">
<rect width="120" height="38.48" fill="white"/>
</clipPath>
</defs>
</svg>
